<?xml version="1.0" encoding="UTF-8"?>
<svg xmlns="http://www.w3.org/2000/svg" xmlns:xlink="http://www.w3.org/1999/xlink" width="24pt" height="24pt" viewBox="0 0 24 24" version="1.1">
<g id="surface1">
<path style=" stroke:none;fill-rule:nonzero;fill:rgb(25.098039%,64.313725%,34.901961%);fill-opacity:1;" d="M 23.960938 12 C 23.960938 18.613281 18.601562 23.972656 11.988281 23.972656 C 5.375 23.972656 0.0117188 18.613281 0.0117188 12 C 0.0117188 5.386719 5.375 0.0273438 11.988281 0.0273438 C 18.601562 0.0273438 23.960938 5.386719 23.960938 12 Z M 23.960938 12 "/>
<path style=" stroke:none;fill-rule:nonzero;fill:rgb(21.568627%,54.509804%,30.588235%);fill-opacity:1;" d="M 11.988281 0.0273438 C 11.894531 0.0273438 11.804688 0.0273438 11.714844 0.03125 C 11.691406 0.03125 11.667969 0.03125 11.644531 0.03125 C 11.558594 0.0351562 11.472656 0.0351562 11.386719 0.0390625 C 11.363281 0.0429688 11.34375 0.0429688 11.320312 0.0429688 C 11.253906 0.046875 11.191406 0.0507812 11.125 0.0585938 C 11.09375 0.0585938 11.058594 0.0625 11.027344 0.0625 C 10.953125 0.0703125 10.875 0.078125 10.800781 0.0859375 C 10.761719 0.0898438 10.722656 0.09375 10.683594 0.0976562 C 10.636719 0.101562 10.589844 0.105469 10.546875 0.113281 C 10.503906 0.117188 10.464844 0.121094 10.425781 0.128906 C 16.300781 0.894531 20.835938 5.917969 20.835938 12 C 20.835938 18.082031 16.300781 23.105469 10.425781 23.871094 C 10.464844 23.878906 10.503906 23.882812 10.546875 23.886719 C 10.589844 23.894531 10.636719 23.898438 10.683594 23.902344 C 10.722656 23.90625 10.761719 23.910156 10.800781 23.914062 C 10.875 23.921875 10.953125 23.929688 11.027344 23.933594 C 11.058594 23.9375 11.09375 23.941406 11.125 23.941406 C 11.191406 23.945312 11.253906 23.953125 11.320312 23.953125 C 11.34375 23.957031 11.363281 23.957031 11.386719 23.957031 C 11.472656 23.964844 11.558594 23.964844 11.644531 23.96875 C 11.667969 23.96875 11.691406 23.96875 11.714844 23.96875 C 11.804688 23.972656 11.894531 23.972656 11.988281 23.972656 C 18.601562 23.972656 23.960938 18.613281 23.960938 12 C 23.960938 5.386719 18.601562 0.0273438 11.988281 0.0273438 Z M 11.988281 0.0273438 "/>
<path style=" stroke:none;fill-rule:nonzero;fill:rgb(53.72549%,52.941176%,56.470588%);fill-opacity:1;" d="M 10.425781 10.957031 L 15.421875 8.09375 C 15.421875 8.09375 20.882812 9.257812 22.144531 6.953125 L 22.542969 6.230469 L 22.890625 6.980469 C 23.605469 8.542969 23.988281 10.277344 23.988281 12 C 23.988281 15.96875 22.019531 19.679688 18.726562 21.921875 L 18.386719 22.15625 Z M 10.425781 10.957031 "/>
<path style=" stroke:none;fill-rule:nonzero;fill:rgb(47.843137%,47.45098%,49.803922%);fill-opacity:1;" d="M 23.960938 12 C 23.960938 9.929688 23.4375 7.984375 22.511719 6.285156 L 22.144531 6.953125 C 21.703125 7.761719 21.121094 8.589844 20.539062 9.332031 C 20.734375 10.191406 20.835938 11.082031 20.835938 12 C 20.835938 15.34375 19.464844 18.367188 17.257812 20.539062 L 18.375 22.164062 C 21.734375 20.042969 23.960938 16.265625 23.960938 12 Z M 23.960938 12 "/>
<path style=" stroke:none;fill-rule:nonzero;fill:rgb(23.921569%,60.392157%,89.019608%);fill-opacity:1;" d="M 11.988281 24 C 7.886719 24 4.113281 21.933594 1.886719 18.472656 L 1.675781 18.144531 L 8.34375 12.519531 L 16.019531 23.308594 L 15.527344 23.464844 C 14.382812 23.820312 13.191406 24 11.988281 24 Z M 11.988281 24 "/>
<path style=" stroke:none;fill-rule:nonzero;fill:rgb(11.372549%,50.588235%,80.784314%);fill-opacity:1;" d="M 16.066406 23.289062 L 15.253906 22.125 C 13.820312 23.03125 12.179688 23.667969 10.421875 23.898438 C 10.929688 23.964844 11.457031 23.972656 11.988281 23.972656 C 13.414062 23.972656 14.796875 23.746094 16.066406 23.289062 Z M 16.066406 23.289062 "/>
<path style=" stroke:none;fill-rule:nonzero;fill:rgb(100%,100%,100%);fill-opacity:1;" d="M 8.34375 12.519531 L 10.425781 10.957031 L 18.429688 22.128906 L 18.042969 22.355469 C 17.492188 22.679688 16.914062 22.960938 16.324219 23.1875 L 16.019531 23.308594 Z M 8.34375 12.519531 "/>
<path style=" stroke:none;fill-rule:nonzero;fill:rgb(87.843137%,87.843137%,89.019608%);fill-opacity:1;" d="M 16.019531 23.308594 C 16.871094 23.003906 17.679688 22.605469 18.429688 22.128906 L 17.277344 20.519531 C 16.648438 21.140625 15.953125 21.691406 15.203125 22.160156 Z M 16.019531 23.308594 "/>
<path style=" stroke:none;fill-rule:nonzero;fill:rgb(100%,80.784314%,0%);fill-opacity:1;" d="M 1.46875 17.773438 C 1.140625 17.179688 0.863281 16.550781 0.640625 15.90625 L 0.542969 15.53125 L 14.589844 5.753906 L 16.671875 7.316406 L 1.675781 18.144531 Z M 1.46875 17.773438 "/>
<path style=" stroke:none;fill-rule:nonzero;fill:rgb(80.392157%,16.078431%,0%);fill-opacity:1;" d="M 17.933594 11.730469 C 17.195312 10.960938 13.523438 7.007812 13.523438 4.710938 C 13.523438 2.113281 15.636719 0 18.234375 0 C 20.832031 0 22.945312 2.113281 22.945312 4.710938 C 22.945312 7.003906 19.273438 10.960938 18.535156 11.730469 C 18.371094 11.898438 18.097656 11.898438 17.933594 11.730469 Z M 17.933594 11.730469 "/>
<path style=" stroke:none;fill-rule:nonzero;fill:rgb(53.72549%,11.372549%,0%);fill-opacity:1;" d="M 18.234375 6.300781 C 17.070312 6.300781 16.125 5.351562 16.125 4.191406 C 16.125 3.027344 17.070312 2.082031 18.234375 2.082031 C 19.398438 2.082031 20.34375 3.027344 20.34375 4.191406 C 20.34375 5.351562 19.398438 6.300781 18.234375 6.300781 Z M 18.234375 6.300781 "/>
<path style=" stroke:none;fill-rule:nonzero;fill:rgb(100%,100%,100%);fill-opacity:1;" d="M 6.78125 8.746094 C 8.144531 8.746094 9.253906 7.636719 9.253906 6.273438 C 9.253906 6.058594 9.078125 5.882812 8.863281 5.882812 L 7.300781 5.882812 C 7.085938 5.882812 6.910156 6.058594 6.910156 6.273438 C 6.910156 6.488281 7.085938 6.664062 7.300781 6.664062 L 8.425781 6.664062 C 8.25 7.410156 7.578125 7.964844 6.78125 7.964844 C 5.847656 7.964844 5.089844 7.207031 5.089844 6.273438 C 5.089844 5.339844 5.847656 4.582031 6.78125 4.582031 C 7.191406 4.582031 7.589844 4.730469 7.898438 5.003906 C 8.0625 5.148438 8.308594 5.132812 8.449219 4.96875 C 8.59375 4.808594 8.578125 4.5625 8.417969 4.417969 C 7.964844 4.019531 7.382812 3.800781 6.78125 3.800781 C 5.417969 3.800781 4.308594 4.910156 4.308594 6.273438 C 4.308594 7.636719 5.417969 8.746094 6.78125 8.746094 Z M 6.78125 8.746094 "/>
</g>
</svg>
